<svg id="Layer_1" data-name="Layer 1" xmlns="http://www.w3.org/2000/svg" viewBox="0 0 422.41 291.32"><defs><style>.cls-1,.cls-2{fill:none;}.cls-2{stroke:#231f20;stroke-miterlimit:10;}</style></defs><title>shape4</title><rect class="cls-1" x="127.27" y="113.87" width="147.01" height="147.01" transform="translate(-73.64 198.27) rotate(-45.3)"/><line class="cls-2" y1="76.9" x2="400.46" y2="74.81"/><line class="cls-2" x1="0.04" y1="83.39" x2="400.49" y2="81.31"/><line class="cls-2" x1="0.07" y1="89.89" x2="400.52" y2="87.81"/><line class="cls-2" x1="0.1" y1="96.39" x2="400.56" y2="94.3"/><line class="cls-2" x1="0.14" y1="102.88" x2="400.59" y2="100.8"/><line class="cls-2" x1="0.17" y1="109.38" x2="400.62" y2="107.3"/><line class="cls-2" x1="0.21" y1="115.88" x2="400.66" y2="113.79"/><line class="cls-2" x1="0.24" y1="122.37" x2="400.69" y2="120.29"/><line class="cls-2" x1="0.27" y1="128.87" x2="400.73" y2="126.79"/><line class="cls-2" x1="0.31" y1="135.37" x2="400.76" y2="133.28"/><line class="cls-2" x1="0.34" y1="141.86" x2="400.79" y2="139.78"/><line class="cls-2" x1="0.37" y1="148.36" x2="400.83" y2="146.28"/><line class="cls-2" x1="0.41" y1="154.86" x2="400.86" y2="152.77"/><line class="cls-2" x1="0.44" y1="161.35" x2="400.89" y2="159.27"/><line class="cls-2" x1="0.48" y1="167.85" x2="400.93" y2="165.77"/><line class="cls-2" x1="0.51" y1="174.35" x2="400.96" y2="172.26"/><line class="cls-2" x1="0.54" y1="180.84" x2="401" y2="178.76"/><line class="cls-2" x1="0.58" y1="187.34" x2="401.03" y2="185.26"/><line class="cls-2" x1="0.61" y1="193.84" x2="401.06" y2="191.75"/><line class="cls-2" x1="0.64" y1="200.33" x2="401.1" y2="198.25"/><line class="cls-2" x1="0.68" y1="206.83" x2="401.13" y2="204.75"/><line class="cls-2" x1="0.71" y1="213.33" x2="401.16" y2="211.24"/><line class="cls-2" x1="0.75" y1="219.82" x2="401.2" y2="217.74"/><line class="cls-2" x1="0.78" y1="226.32" x2="401.23" y2="224.24"/><line class="cls-2" x1="0.81" y1="232.82" x2="401.27" y2="230.73"/><line class="cls-2" x1="0.85" y1="239.31" x2="401.3" y2="237.23"/><line class="cls-2" x1="0.88" y1="245.81" x2="401.33" y2="243.73"/><line class="cls-2" x1="0.91" y1="252.31" x2="401.37" y2="250.22"/><line class="cls-2" x1="0.95" y1="258.8" x2="401.4" y2="256.72"/><line class="cls-2" x1="0.98" y1="265.3" x2="401.44" y2="263.22"/><line class="cls-2" x1="1.02" y1="271.8" x2="401.47" y2="269.71"/><line class="cls-2" x1="1.05" y1="278.29" x2="401.5" y2="276.21"/><line class="cls-2" x1="1.08" y1="284.79" x2="401.54" y2="282.71"/><line class="cls-2" x1="20.88" y1="2.58" x2="421.33" y2="0.5"/><line class="cls-2" x1="20.91" y1="9.08" x2="421.36" y2="7"/><line class="cls-2" x1="20.94" y1="15.58" x2="421.4" y2="13.49"/><line class="cls-2" x1="20.98" y1="22.07" x2="421.43" y2="19.99"/><line class="cls-2" x1="21.01" y1="28.57" x2="421.46" y2="26.49"/><line class="cls-2" x1="21.05" y1="35.07" x2="421.5" y2="32.98"/><line class="cls-2" x1="21.08" y1="41.56" x2="421.53" y2="39.48"/><line class="cls-2" x1="21.11" y1="48.06" x2="421.57" y2="45.98"/><line class="cls-2" x1="21.15" y1="54.56" x2="421.6" y2="52.47"/><line class="cls-2" x1="21.18" y1="61.05" x2="421.63" y2="58.97"/><line class="cls-2" x1="21.21" y1="67.55" x2="421.67" y2="65.47"/><line class="cls-2" x1="21.25" y1="74.05" x2="421.7" y2="71.96"/><line class="cls-2" x1="21.28" y1="80.54" x2="421.74" y2="78.46"/><line class="cls-2" x1="21.32" y1="87.04" x2="421.77" y2="84.96"/><line class="cls-2" x1="21.35" y1="93.54" x2="421.8" y2="91.45"/><line class="cls-2" x1="21.38" y1="100.03" x2="421.84" y2="97.95"/><line class="cls-2" x1="21.42" y1="106.53" x2="421.87" y2="104.45"/><line class="cls-2" x1="21.45" y1="113.03" x2="421.9" y2="110.94"/><line class="cls-2" x1="21.49" y1="119.52" x2="421.94" y2="117.44"/><line class="cls-2" x1="21.52" y1="126.02" x2="421.97" y2="123.94"/><line class="cls-2" x1="21.55" y1="132.52" x2="422.01" y2="130.43"/><line class="cls-2" x1="21.59" y1="139.01" x2="422.04" y2="136.93"/><line class="cls-2" x1="21.62" y1="145.51" x2="422.07" y2="143.43"/><line class="cls-2" x1="21.65" y1="152.01" x2="422.11" y2="149.92"/><line class="cls-2" x1="21.69" y1="158.5" x2="422.14" y2="156.42"/><line class="cls-2" x1="21.72" y1="165" x2="422.17" y2="162.92"/><line class="cls-2" x1="21.76" y1="171.5" x2="422.21" y2="169.41"/><line class="cls-2" x1="21.79" y1="177.99" x2="422.24" y2="175.91"/><line class="cls-2" x1="21.82" y1="184.49" x2="422.28" y2="182.41"/><line class="cls-2" x1="21.86" y1="190.99" x2="422.31" y2="188.9"/><line class="cls-2" x1="21.89" y1="197.48" x2="422.34" y2="195.4"/><line class="cls-2" x1="21.92" y1="203.98" x2="422.38" y2="201.9"/><line class="cls-2" x1="21.96" y1="210.48" x2="422.41" y2="208.39"/></svg>