<svg id="Layer_1" data-name="Layer 1" xmlns="http://www.w3.org/2000/svg" viewBox="0 0 68.04 95.76"><defs><style>.cls-1{fill:none;}.cls-2{stroke:#000;stroke-miterlimit:10;stroke-width:0.5px;stroke-dasharray:12 10;}</style></defs><title>shape8</title><rect class="cls-1" x="14.34" y="29.13" width="43.37" height="39.9" transform="translate(39.2 -13.71) rotate(42.23)"/><line class="cls-2" x1="59.19" y1="0.02" x2="67.79" y2="95.34"/><line class="cls-2" x1="58.05" y1="0.03" x2="66.65" y2="95.35"/><line class="cls-2" x1="56.92" y1="0.04" x2="65.52" y2="95.36"/><line class="cls-2" x1="55.79" y1="0.05" x2="64.39" y2="95.36"/><line class="cls-2" x1="54.65" y1="0.05" x2="63.25" y2="95.37"/><line class="cls-2" x1="53.52" y1="0.06" x2="62.12" y2="95.38"/><line class="cls-2" x1="52.39" y1="0.07" x2="60.99" y2="95.39"/><line class="cls-2" x1="51.25" y1="0.08" x2="59.85" y2="95.39"/><line class="cls-2" x1="50.12" y1="0.08" x2="58.72" y2="95.4"/><line class="cls-2" x1="48.99" y1="0.09" x2="57.59" y2="95.41"/><line class="cls-2" x1="47.85" y1="0.1" x2="56.45" y2="95.42"/><line class="cls-2" x1="46.72" y1="0.11" x2="55.32" y2="95.42"/><line class="cls-2" x1="45.58" y1="0.11" x2="54.19" y2="95.43"/><line class="cls-2" x1="44.45" y1="0.12" x2="53.05" y2="95.44"/><line class="cls-2" x1="43.32" y1="0.13" x2="51.92" y2="95.45"/><line class="cls-2" x1="42.18" y1="0.14" x2="50.79" y2="95.45"/><line class="cls-2" x1="41.05" y1="0.14" x2="49.65" y2="95.46"/><line class="cls-2" x1="39.92" y1="0.15" x2="48.52" y2="95.47"/><line class="cls-2" x1="38.78" y1="0.16" x2="47.39" y2="95.48"/><line class="cls-2" x1="37.65" y1="0.17" x2="46.25" y2="95.48"/><line class="cls-2" x1="36.52" y1="0.17" x2="45.12" y2="95.49"/><line class="cls-2" x1="35.38" y1="0.18" x2="43.99" y2="95.5"/><line class="cls-2" x1="34.25" y1="0.19" x2="42.85" y2="95.51"/><line class="cls-2" x1="33.12" y1="0.2" x2="41.72" y2="95.51"/><line class="cls-2" x1="31.98" y1="0.2" x2="40.59" y2="95.52"/><line class="cls-2" x1="30.85" y1="0.21" x2="39.45" y2="95.53"/><line class="cls-2" x1="29.72" y1="0.22" x2="38.32" y2="95.54"/><line class="cls-2" x1="28.58" y1="0.23" x2="37.19" y2="95.55"/><line class="cls-2" x1="27.45" y1="0.24" x2="36.05" y2="95.55"/><line class="cls-2" x1="26.32" y1="0.24" x2="34.92" y2="95.56"/><line class="cls-2" x1="25.18" y1="0.25" x2="33.79" y2="95.57"/><line class="cls-2" x1="24.05" y1="0.26" x2="32.65" y2="95.58"/><line class="cls-2" x1="22.92" y1="0.27" x2="31.52" y2="95.58"/><line class="cls-2" x1="21.78" y1="0.27" x2="30.39" y2="95.59"/><line class="cls-2" x1="20.65" y1="0.28" x2="29.25" y2="95.6"/><line class="cls-2" x1="19.52" y1="0.29" x2="28.12" y2="95.61"/><line class="cls-2" x1="18.38" y1="0.3" x2="26.99" y2="95.61"/><line class="cls-2" x1="17.25" y1="0.3" x2="25.85" y2="95.62"/><line class="cls-2" x1="16.12" y1="0.31" x2="24.72" y2="95.63"/><line class="cls-2" x1="14.98" y1="0.32" x2="23.58" y2="95.64"/><line class="cls-2" x1="13.85" y1="0.33" x2="22.45" y2="95.64"/><line class="cls-2" x1="12.72" y1="0.33" x2="21.32" y2="95.65"/><line class="cls-2" x1="11.58" y1="0.34" x2="20.18" y2="95.66"/><line class="cls-2" x1="10.45" y1="0.35" x2="19.05" y2="95.67"/><line class="cls-2" x1="9.32" y1="0.36" x2="17.92" y2="95.67"/><line class="cls-2" x1="8.18" y1="0.36" x2="16.78" y2="95.68"/><line class="cls-2" x1="7.05" y1="0.37" x2="15.65" y2="95.69"/><line class="cls-2" x1="5.92" y1="0.38" x2="14.52" y2="95.7"/><line class="cls-2" x1="4.78" y1="0.39" x2="13.38" y2="95.7"/><line class="cls-2" x1="3.65" y1="0.39" x2="12.25" y2="95.71"/><line class="cls-2" x1="2.52" y1="0.4" x2="11.12" y2="95.72"/><line class="cls-2" x1="1.38" y1="0.41" x2="9.98" y2="95.73"/><line class="cls-2" x1="0.25" y1="0.42" x2="8.85" y2="95.74"/></svg>