<svg id="Layer_1" data-name="Layer 1" xmlns="http://www.w3.org/2000/svg" viewBox="0 0 451.39 460.49"><defs><style>.cls-1{font-size:0.5px;fill:#231f20;font-family:MyriadPro-Regular, Myriad Pro;}.cls-2,.cls-4,.cls-5{fill:none;}.cls-2,.cls-3{stroke:#000;}.cls-2,.cls-3,.cls-5{stroke-miterlimit:10;}.cls-3{stroke-width:0.5px;}.cls-5{stroke:#231f20;}</style></defs><title>stripe</title><text class="cls-1" transform="translate(0.19 115.09)">0.0</text><text class="cls-1" transform="translate(0.38 115.09)">0.2</text><text class="cls-1" transform="translate(0.56 115.09)">0.4</text><text class="cls-1" transform="translate(0.74 115.09)">0.6</text><text class="cls-1" transform="translate(0.93 115.09)">0.8</text><text class="cls-1" transform="translate(1.11 115.09)">1.0</text><line class="cls-2" x1="0.5" y1="114.68" x2="1.42" y2="114.68"/><line class="cls-2" x1="0.5" y1="114.68" x2="0.5" y2="114.63"/><line class="cls-2" x1="0.68" y1="114.68" x2="0.68" y2="114.63"/><line class="cls-2" x1="0.87" y1="114.68" x2="0.87" y2="114.63"/><line class="cls-2" x1="1.05" y1="114.68" x2="1.05" y2="114.63"/><line class="cls-2" x1="1.23" y1="114.68" x2="1.23" y2="114.63"/><line class="cls-2" x1="1.42" y1="114.68" x2="1.42" y2="114.63"/><line class="cls-2" x1="0.5" y1="114.68" x2="0.5" y2="112.8"/><line class="cls-2" x1="0.5" y1="113.74" x2="0.52" y2="113.74"/><rect class="cls-3" x="0.5" y="113.07" width="0.92" height="1.35"/><rect class="cls-4" x="218.95" y="305.29" width="140.51" height="209.66" transform="matrix(0.85, 0.53, -0.53, 0.85, 304.84, -247.84)"/><path class="cls-5" d="M399.79,156.8,409.6,515" transform="translate(41.29 -156.78)"/><path class="cls-5" d="M390.92,160.73l9.81,358.16" transform="translate(41.29 -156.78)"/><path class="cls-5" d="M382.05,164.66l9.8,358.17" transform="translate(41.29 -156.78)"/><path class="cls-5" d="M373.17,168.6,383,526.76" transform="translate(41.29 -156.78)"/><path class="cls-5" d="M364.3,172.53l9.81,358.17" transform="translate(41.29 -156.78)"/><path class="cls-5" d="M355.42,176.47l9.81,358.16" transform="translate(41.29 -156.78)"/><path class="cls-5" d="M346.55,180.4l9.81,358.17" transform="translate(41.29 -156.78)"/><path class="cls-5" d="M337.68,184.34q4.89,179.07,9.8,358.16" transform="translate(41.29 -156.78)"/><path class="cls-5" d="M328.8,188.27l9.81,358.16" transform="translate(41.29 -156.78)"/><path class="cls-5" d="M319.93,192.2q4.9,179.08,9.8,358.17" transform="translate(41.29 -156.78)"/><path class="cls-5" d="M311.05,196.14l9.81,358.16" transform="translate(41.29 -156.78)"/><path class="cls-5" d="M302.18,200.07,312,558.24" transform="translate(41.29 -156.78)"/><path class="cls-5" d="M293.31,204q4.89,179.08,9.8,358.16" transform="translate(41.29 -156.78)"/><path class="cls-5" d="M284.43,207.94l9.81,358.17" transform="translate(41.29 -156.78)"/><path class="cls-5" d="M275.56,211.88Q280.46,391,285.36,570" transform="translate(41.29 -156.78)"/><path class="cls-5" d="M266.68,215.81,276.49,574" transform="translate(41.29 -156.78)"/><path class="cls-5" d="M257.81,219.75l9.81,358.16" transform="translate(41.29 -156.78)"/><path class="cls-5" d="M248.93,223.68l9.81,358.16" transform="translate(41.29 -156.78)"/><path class="cls-5" d="M240.06,227.61l9.81,358.17" transform="translate(41.29 -156.78)"/><path class="cls-5" d="M231.19,231.55q4.91,179.08,9.8,358.16" transform="translate(41.29 -156.78)"/><path class="cls-5" d="M222.31,235.48l9.81,358.17" transform="translate(41.29 -156.78)"/><path class="cls-5" d="M213.44,239.42l9.81,358.16" transform="translate(41.29 -156.78)"/><path class="cls-5" d="M204.56,243.35l9.81,358.17" transform="translate(41.29 -156.78)"/><path class="cls-5" d="M195.69,247.29l9.81,358.16" transform="translate(41.29 -156.78)"/><path class="cls-5" d="M186.82,251.22q4.91,179.09,9.8,358.16" transform="translate(41.29 -156.78)"/><path class="cls-5" d="M177.94,255.15l9.81,358.17" transform="translate(41.29 -156.78)"/><path class="cls-5" d="M169.07,259.09l9.81,358.16" transform="translate(41.29 -156.78)"/></svg>